<svg id="Layer_1" data-name="Layer 1" xmlns="http://www.w3.org/2000/svg" viewBox="0 0 512 512"><defs><style>.cls-1{fill:#cad8dd;}.cls-2{fill:#71c6c4;}</style></defs><title>galaxy_style_4</title><path class="cls-1" d="M106.71,460.81a12.74,12.74,0,0,1-7.85-2.7A254.55,254.55,0,0,1,0,256a257.72,257.72,0,0,1,5.68-53.89,12.8,12.8,0,1,1,25,5.36A232.14,232.14,0,0,0,25.6,256a229.11,229.11,0,0,0,89,181.91,12.8,12.8,0,0,1-7.87,22.9Z"/><path class="cls-1" d="M256,512a253.85,253.85,0,0,1-107.84-23.76A12.8,12.8,0,0,1,159,465a228.35,228.35,0,0,0,97,21.37C383,486.4,486.4,383,486.4,256a232.6,232.6,0,0,0-2.86-36.41,12.8,12.8,0,0,1,25.29-4A258.71,258.71,0,0,1,512,256C512,397.16,397.16,512,256,512Z"/><path class="cls-1" d="M473.61,160.06A12.8,12.8,0,0,1,462.15,153C422.81,74.41,343.81,25.6,256,25.6A229.86,229.86,0,0,0,134.75,60a12.8,12.8,0,1,1-13.49-21.75A255.42,255.42,0,0,1,256,0c97.57,0,185.33,54.23,229,141.53a12.8,12.8,0,0,1-11.43,18.53Z"/><path class="cls-1" d="M38.39,160.07A12.8,12.8,0,0,1,27,141.54,256.49,256.49,0,0,1,57.52,94.31a12.8,12.8,0,1,1,19.84,16.17A230.81,230.81,0,0,0,49.84,153,12.8,12.8,0,0,1,38.39,160.07Z"/><circle class="cls-2" cx="358.4" cy="153.6" r="38.4"/><path class="cls-1" d="M243.2,422.41c-91.75,0-166.4-74.65-166.4-166.41S151.45,89.6,243.2,89.6c4.56,0,9.22.19,13.84.57A12.8,12.8,0,0,1,255,115.68C172.2,109,102.4,174.49,102.4,256S172.21,403,255,396.33A12.8,12.8,0,0,1,257,421.84C252.42,422.21,247.77,422.41,243.2,422.41Z"/><path class="cls-1" d="M320,401.86A12.8,12.8,0,0,1,313.59,378a141.38,141.38,0,0,0,34.57-28.12,12.8,12.8,0,0,1,19.07,17.07,166.8,166.8,0,0,1-40.82,33.19A12.74,12.74,0,0,1,320,401.86Z"/><path class="cls-1" d="M243.2,332.8A76.89,76.89,0,0,1,166.4,256a12.8,12.8,0,1,1,25.6,0,51.26,51.26,0,0,0,51.2,51.2,12.8,12.8,0,0,1,0,25.6Z"/><path class="cls-1" d="M307.2,268.8A12.8,12.8,0,0,1,294.4,256a51.23,51.23,0,0,0-71.68-46.94,12.8,12.8,0,0,1-10.25-23.46A76.84,76.84,0,0,1,320,256,12.8,12.8,0,0,1,307.2,268.8Z"/><circle class="cls-1" cx="403.2" cy="275.2" r="19.2"/><circle class="cls-1" cx="492.8" cy="492.8" r="19.2"/><circle class="cls-1" cx="19.2" cy="19.2" r="19.2"/></svg>