<svg id="Layer_1" data-name="Layer 1" xmlns="http://www.w3.org/2000/svg" viewBox="0 0 512 512"><defs><style>.cls-1{fill:#d9e4e8;}.cls-2{fill:#141f38;}.cls-3{opacity:0.14;}.cls-4{fill:#17292d;}.cls-5{fill:#79d3d3;}</style></defs><title>jupiter_style_3</title><path class="cls-1" d="M256,460.8C143.07,460.8,51.2,368.92,51.2,256S143.07,51.2,256,51.2,460.8,143.08,460.8,256,368.93,460.8,256,460.8Z"/><path class="cls-2" d="M256,38.4C135.83,38.4,38.4,135.82,38.4,256S135.83,473.6,256,473.6,473.6,376.18,473.6,256,376.18,38.4,256,38.4ZM256,448a191.53,191.53,0,0,1-143-64H179.2a12.8,12.8,0,0,0,0-25.6H93.65A189.23,189.23,0,0,1,80,332.8H102.4a12.8,12.8,0,0,0,0-25.6H70.93A192.16,192.16,0,0,1,80,179.2H153.6a12.8,12.8,0,1,0,0-25.6H93.65a191.43,191.43,0,0,1,19.52-25.76,12.35,12.35,0,0,0,2,.16H256a12.8,12.8,0,0,0,0-25.6H140.91A191,191,0,0,1,256,64c88.15,0,162.61,59.71,185.07,140.8H307.2a12.8,12.8,0,0,0,0,25.6H446.29A191.43,191.43,0,0,1,448,256H345.6a12.8,12.8,0,1,0,0,25.6H446.29C433.75,375.41,353.19,448,256,448Z"/><path class="cls-2" d="M230.4,166.4a12.8,12.8,0,0,1-12.8,12.8H192a12.8,12.8,0,0,1-12.8-12.8h0A12.8,12.8,0,0,1,192,153.6h25.6a12.8,12.8,0,0,1,12.8,12.8Z"/><g class="cls-3"><path class="cls-4" d="M383.94,112.88A210.66,210.66,0,0,1,396.8,185.6c0,116.64-94.56,211.2-211.2,211.2a210.69,210.69,0,0,1-72.72-12.86A191.5,191.5,0,0,0,256,448c106,0,192-86,192-192A191.49,191.49,0,0,0,383.94,112.88Z"/></g><path class="cls-2" d="M243.2,320a12.8,12.8,0,0,1-12.8,12.8H140.8A12.8,12.8,0,0,1,128,320h0a12.8,12.8,0,0,1,12.8-12.8h89.6A12.8,12.8,0,0,1,243.2,320Z"/><path class="cls-5" d="M473.6,89.6A25.6,25.6,0,1,1,499.2,64,25.63,25.63,0,0,1,473.6,89.6Z"/><path class="cls-2" d="M473.6,51.2A12.8,12.8,0,1,1,460.8,64a12.81,12.81,0,0,1,12.8-12.8m0-25.6A38.4,38.4,0,1,0,512,64a38.41,38.41,0,0,0-38.4-38.4Z"/><path class="cls-5" d="M38.4,473.6A25.6,25.6,0,1,1,64,448,25.63,25.63,0,0,1,38.4,473.6Z"/><path class="cls-2" d="M38.4,435.2A12.8,12.8,0,1,1,25.6,448a12.81,12.81,0,0,1,12.8-12.8m0-25.6A38.4,38.4,0,1,0,76.8,448a38.4,38.4,0,0,0-38.4-38.4Z"/></svg>